<svg width="89" height="87" viewBox="0 0 89 87" fill="none" xmlns="http://www.w3.org/2000/svg">
<g filter="url(#filter0_d)">
<path d="M83.933 27.7994H41.2773C37.0874 27.7994 33.6905 31.229 33.6905 35.4594V61.9726C33.6881 62.4435 33.7786 62.9102 33.9566 63.3461C34.1347 63.782 34.3969 64.1785 34.7282 64.5131C35.0595 64.8476 35.4535 65.1136 35.8877 65.2958C36.3218 65.4781 36.7876 65.573 37.2585 65.5752H64.3471C65.2487 68.6954 67.5107 72.9959 73.2092 74.9129L71.6007 65.5752H83.933C84.4038 65.573 84.8696 65.4781 85.3038 65.2958C85.7379 65.1136 86.1319 64.8476 86.4632 64.5131C86.7946 64.1785 87.0568 63.782 87.2348 63.3461C87.4129 62.9102 87.5033 62.4435 87.501 61.9726V31.402C87.5033 30.9312 87.4129 30.4645 87.2348 30.0286C87.0568 29.5927 86.7946 29.1962 86.4632 28.8616C86.1319 28.5271 85.7379 28.2611 85.3038 28.0788C84.8696 27.8966 84.4038 27.8016 83.933 27.7994Z" fill="url(#paint0_linear)"/>
<path d="M83.2152 28.6932H41.8111C40.844 28.6932 39.8864 28.8837 38.9929 29.2538C38.0994 29.6238 37.2876 30.1663 36.6037 30.8501C35.9199 31.534 35.3774 32.3458 35.0074 33.2393C34.6373 34.1328 34.4468 35.0904 34.4468 36.0575V61.5466C34.4468 62.4643 34.8113 63.3444 35.4603 63.9933C36.1092 64.6422 36.9893 65.0068 37.907 65.0068H64.2018C65.0767 68.0063 67.2754 72.1408 72.8029 73.9836L71.2379 65.0097H83.2103C84.128 65.0097 85.0081 64.6452 85.657 63.9963C86.306 63.3474 86.6705 62.4672 86.6705 61.5495V32.1564C86.6713 31.239 86.3078 30.3589 85.6598 29.7094C85.0119 29.06 84.1326 28.6945 83.2152 28.6932Z" fill="#FAFAFA"/>
<path d="M72.4972 35.3101H51.0962V37.9854H72.4972V35.3101Z" fill="#E0E0E0"/>
<path d="M72.3768 40.2494H64.3511V42.9246H72.3768V40.2494Z" fill="#E0E0E0"/>
<path d="M72.2538 45.1876H56.4277V47.8629H72.2538V45.1876Z" fill="#E0E0E0"/>
<path d="M72.1335 50.1268H52.7246V52.8021H72.1335V50.1268Z" fill="#E0E0E0"/>
<path d="M72.0117 55.0651H61.7783V57.7403H72.0117V55.0651Z" fill="#E0E0E0"/>
<path d="M5.13556 12.1602H51.5431C53.5026 12.1602 55.0904 13.7707 55.0904 15.7579V46.2899C55.0904 48.2771 53.5026 49.8876 51.5431 49.8876H24.6117C23.715 53.0037 21.4629 57.3023 15.8 59.2134L17.3996 49.8876H5.1405C3.18102 49.8876 1.59327 48.2771 1.59327 46.2899V15.7559C1.58833 13.7707 3.17608 12.1602 5.13556 12.1602Z" fill="url(#paint1_linear)"/>
<path d="M5.66824 13.0964H50.9705C51.8882 13.0964 52.7683 13.461 53.4173 14.1099C54.0662 14.7588 54.4307 15.639 54.4307 16.5567V45.9498C54.4307 46.8675 54.0662 47.7477 53.4173 48.3966C52.7683 49.0455 51.8882 49.4101 50.9705 49.4101H24.6817C23.8067 52.4096 21.608 56.5441 16.0806 58.3869L17.6416 49.4101H5.66824C4.75053 49.4101 3.8704 49.0455 3.22149 48.3966C2.57257 47.7477 2.20801 46.8675 2.20801 45.9498V16.5596C2.20762 16.105 2.29683 15.6547 2.47055 15.2345C2.64427 14.8144 2.89909 14.4326 3.22044 14.111C3.54179 13.7893 3.92337 13.5342 4.34338 13.3601C4.76339 13.186 5.21358 13.0964 5.66824 13.0964Z" fill="white"/>
<path d="M39.0211 18.7455H17.6201V21.4208H39.0211V18.7455Z" fill="#7467F0"/>
<path d="M25.7675 23.6838H17.7417V26.359H25.7675V23.6838Z" fill="#7467F0"/>
<path d="M33.6894 28.622H17.8633V31.2973H33.6894V28.622Z" fill="#7467F0"/>
<path d="M37.3938 33.5612H17.9849V36.2365H37.3938V33.5612Z" fill="#7467F0"/>
<path d="M28.3398 38.4995H18.1064V41.1748H28.3398V38.4995Z" fill="#7467F0"/>
</g>
<defs>
<filter id="filter0_d" x="0" y="0" width="89" height="89" filterUnits="userSpaceOnUse" color-interpolation-filters="sRGB">
<feFlood flood-opacity="0" result="BackgroundImageFix"/>
<feColorMatrix in="SourceAlpha" type="matrix" values="0 0 0 0 0 0 0 0 0 0 0 0 0 0 0 0 0 0 127 0"/>
<feOffset dy="1"/>
<feGaussianBlur stdDeviation="0.5"/>
<feColorMatrix type="matrix" values="0 0 0 0 0.529167 0 0 0 0 0.529167 0 0 0 0 0.529167 0 0 0 0.25 0"/>
<feBlend mode="normal" in2="BackgroundImageFix" result="effect1_dropShadow"/>
<feBlend mode="normal" in="SourceGraphic" in2="effect1_dropShadow" result="shape"/>
</filter>
<linearGradient id="paint0_linear" x1="60.5952" y1="74.9129" x2="60.5952" y2="27.7994" gradientUnits="userSpaceOnUse">
<stop offset="0.01" stop-color="#808080" stop-opacity="0.25"/>
<stop offset="0.54" stop-color="#808080" stop-opacity="0.12"/>
<stop offset="1" stop-color="#808080" stop-opacity="0.1"/>
</linearGradient>
<linearGradient id="paint1_linear" x1="23331.1" y1="28647.3" x2="23331.1" y2="6252.82" gradientUnits="userSpaceOnUse">
<stop offset="0.01" stop-color="#808080" stop-opacity="0.25"/>
<stop offset="0.54" stop-color="#808080" stop-opacity="0.12"/>
<stop offset="1" stop-color="#808080" stop-opacity="0.1"/>
</linearGradient>
</defs>
</svg>
