<svg width="70" height="70" viewBox="0 0 70 70" fill="none" xmlns="http://www.w3.org/2000/svg">
<path d="M58.3331 25.7639C55.2983 25.7637 52.34 24.8116 49.8748 23.0417C49.7369 23.4108 49.4901 23.7292 49.1672 23.9549C48.8443 24.1806 48.4604 24.3029 48.0664 24.3056H21.9331C21.4174 24.3056 20.9228 24.1007 20.5582 23.7361C20.1935 23.3714 19.9887 22.8768 19.9887 22.3611C19.9887 21.8454 20.1935 21.3509 20.5582 20.9862C20.9228 20.6215 21.4174 20.4167 21.9331 20.4167H47.0553C45.4657 18.4579 44.4144 16.1183 44.0052 13.6291C43.596 11.1398 43.8431 8.58685 44.722 6.22224C41.5613 5.31404 38.2884 4.85583 34.9998 4.86113C17.8498 4.86113 3.88867 17.0722 3.88867 32.0834C3.88867 47.0945 17.8498 59.3056 34.9998 59.3056C38.2084 59.3019 41.4013 58.857 44.4887 57.9833L55.2414 64.8278C55.535 65.0161 55.8738 65.122 56.2223 65.1344C56.5709 65.1468 56.9164 65.0653 57.2225 64.8982C57.5287 64.7312 57.7844 64.4849 57.9626 64.1852C58.1409 63.8854 58.2353 63.5432 58.2359 63.1945V50.1084C60.6689 47.7744 62.6104 44.9773 63.9461 41.8817C65.2818 38.7862 65.9848 35.4547 66.0137 32.0834C66.0051 29.4356 65.5583 26.8075 64.6914 24.3056C62.7102 25.2681 60.5358 25.7669 58.3331 25.7639ZM42.2914 43.75H27.7081C27.1924 43.75 26.6978 43.5452 26.3332 43.1805C25.9685 42.8158 25.7637 42.3213 25.7637 41.8056C25.7637 41.2899 25.9685 40.7953 26.3332 40.4306C26.6978 40.066 27.1924 39.8611 27.7081 39.8611H42.2914C42.8071 39.8611 43.3017 40.066 43.6664 40.4306C44.031 40.7953 44.2359 41.2899 44.2359 41.8056C44.2359 42.3213 44.031 42.8158 43.6664 43.1805C43.3017 43.5452 42.8071 43.75 42.2914 43.75ZM48.6109 34.0278H21.3887C20.873 34.0278 20.3784 33.8229 20.0137 33.4583C19.6491 33.0936 19.4442 32.5991 19.4442 32.0834C19.4442 31.5677 19.6491 31.0731 20.0137 30.7084C20.3784 30.3438 20.873 30.1389 21.3887 30.1389H48.6109C49.1266 30.1389 49.6212 30.3438 49.9858 30.7084C50.3505 31.0731 50.5553 31.5677 50.5553 32.0834C50.5553 32.5991 50.3505 33.0936 49.9858 33.4583C49.6212 33.8229 49.1266 34.0278 48.6109 34.0278Z" fill="url(#paint0_linear)"/>
<path d="M58.3335 20.9028C63.703 20.9028 68.0558 16.55 68.0558 11.1806C68.0558 5.81116 63.703 1.45837 58.3335 1.45837C52.9641 1.45837 48.6113 5.81116 48.6113 11.1806C48.6113 16.55 52.9641 20.9028 58.3335 20.9028Z" fill="url(#paint1_linear)"/>
<defs>
<linearGradient id="paint0_linear" x1="34.9512" y1="4.86108" x2="34.9512" y2="65.1357" gradientUnits="userSpaceOnUse">
<stop stop-color="#AF2BFF"/>
<stop offset="1" stop-color="#24D1FD"/>
</linearGradient>
<linearGradient id="paint1_linear" x1="58.3335" y1="1.45837" x2="58.3335" y2="20.9028" gradientUnits="userSpaceOnUse">
<stop stop-color="#A736FF"/>
<stop offset="1" stop-color="#39B9FE"/>
</linearGradient>
</defs>
</svg>
