<svg width="23" height="23" viewBox="0 0 23 23" fill="none" xmlns="http://www.w3.org/2000/svg">
<path d="M19 8.83334C17.9595 8.83325 16.9452 8.50682 16.1 7.90001C16.0527 8.02654 15.9681 8.13573 15.8574 8.21312C15.7467 8.2905 15.6151 8.33243 15.48 8.33334H6.51998C6.34317 8.33334 6.1736 8.2631 6.04857 8.13808C5.92355 8.01305 5.85331 7.84348 5.85331 7.66667C5.85331 7.48986 5.92355 7.32029 6.04857 7.19527C6.1736 7.07024 6.34317 7.00001 6.51998 7.00001H15.1333C14.5883 6.32841 14.2278 5.52629 14.0876 4.67282C13.9473 3.81936 14.032 2.94406 14.3333 2.13334C13.2496 1.82196 12.1275 1.66486 11 1.66667C5.11998 1.66667 0.333313 5.85334 0.333313 11C0.333313 16.1467 5.11998 20.3333 11 20.3333C12.1001 20.3321 13.1948 20.1795 14.2533 19.88L17.94 22.2267C18.0406 22.2912 18.1568 22.3276 18.2763 22.3318C18.3958 22.3361 18.5142 22.3081 18.6192 22.2508C18.7242 22.1936 18.8118 22.1091 18.873 22.0063C18.9341 21.9036 18.9664 21.7862 18.9666 21.6667V17.18C19.8008 16.3798 20.4665 15.4208 20.9244 14.3595C21.3824 13.2981 21.6234 12.1559 21.6333 11C21.6304 10.0922 21.4772 9.19113 21.18 8.33334C20.5007 8.66336 19.7552 8.83435 19 8.83334ZM13.5 15H8.49998C8.32317 15 8.1536 14.9298 8.02857 14.8047C7.90355 14.6797 7.83331 14.5101 7.83331 14.3333C7.83331 14.1565 7.90355 13.987 8.02857 13.8619C8.1536 13.7369 8.32317 13.6667 8.49998 13.6667H13.5C13.6768 13.6667 13.8464 13.7369 13.9714 13.8619C14.0964 13.987 14.1666 14.1565 14.1666 14.3333C14.1666 14.5101 14.0964 14.6797 13.9714 14.8047C13.8464 14.9298 13.6768 15 13.5 15ZM15.6666 11.6667H6.33331C6.1565 11.6667 5.98693 11.5964 5.86191 11.4714C5.73688 11.3464 5.66665 11.1768 5.66665 11C5.66665 10.8232 5.73688 10.6536 5.86191 10.5286C5.98693 10.4036 6.1565 10.3333 6.33331 10.3333H15.6666C15.8435 10.3333 16.013 10.4036 16.1381 10.5286C16.2631 10.6536 16.3333 10.8232 16.3333 11C16.3333 11.1768 16.2631 11.3464 16.1381 11.4714C16.013 11.5964 15.8435 11.6667 15.6666 11.6667Z" fill="white"/>
<path d="M19 7.16667C20.841 7.16667 22.3334 5.67428 22.3334 3.83333C22.3334 1.99238 20.841 0.5 19 0.5C17.1591 0.5 15.6667 1.99238 15.6667 3.83333C15.6667 5.67428 17.1591 7.16667 19 7.16667Z" fill="white"/>
</svg>
