<svg width="568" height="219" viewBox="0 0 568 219" fill="none" xmlns="http://www.w3.org/2000/svg">
<rect width="567.3" height="219" rx="8" fill="url(#paint0_linear)"/>
<path d="M7.29999 219H243.637L208.252 205.498C143.909 180.946 83.5173 146.101 29.1903 102.183C24.169 98.1234 17.4078 97.4071 11.7232 100.332L0 106.364V211.7C0 215.732 3.26831 219 7.29999 219Z" fill="url(#paint1_linear)"/>
<path d="M118.706 96.358L45.625 135.868V193.45H299.3L271.745 182.403C221.64 162.314 174.613 133.805 132.308 97.872C128.397 94.5508 123.132 93.9647 118.706 96.358Z" fill="url(#paint2_linear)"/>
<path d="M131.83 0C140.329 33.6361 125.972 70.1624 94.4411 88.3668C63.2383 106.382 24.9057 100.861 0 77.3127V7.3C0 3.26838 3.26816 0 7.3 0H131.83Z" fill="url(#paint3_linear)"/>
<g filter="url(#filter0_f)">
<path d="M83.314 10.9435C82.5365 13.8459 84.2586 16.8291 87.161 17.6068C90.0638 18.3846 93.0468 16.6621 93.8247 13.7598C94.6022 10.8573 92.8797 7.87409 89.9773 7.09638C87.075 6.31877 84.092 8.04107 83.314 10.9435Z" fill="url(#paint4_linear)"/>
<path d="M14.3107 53.0036C13.5332 55.906 15.2557 58.8893 18.1581 59.667C21.0604 60.4446 24.0434 58.7224 24.8214 55.8199C25.5988 52.9175 23.8763 49.9343 20.974 49.1566C18.0716 48.3789 15.0886 50.1013 14.3107 53.0036Z" fill="url(#paint5_linear)"/>
<path d="M51.5654 74.2511C45.7607 72.6957 42.3161 66.7291 43.8716 60.9244C45.4266 55.1197 51.3935 51.6749 57.1982 53.2302C63.0029 54.7856 66.4475 60.7522 64.892 66.5569C63.3366 72.3616 57.3702 75.8064 51.5654 74.2511Z" fill="url(#paint6_linear)"/>
<path d="M86.7586 61.151C86.1754 63.3277 87.4671 65.5652 89.6441 66.1484C91.8206 66.7317 94.0582 65.4399 94.6414 63.2631C95.2246 61.0864 93.933 58.8489 91.756 58.2657C89.5794 57.6824 87.3419 58.9742 86.7586 61.151Z" fill="url(#paint7_linear)"/>
<path d="M90.0214 43.7195C89.6325 45.1706 90.4937 46.6624 91.9449 47.0512C93.3961 47.44 94.8874 46.5788 95.2763 45.1276C95.6653 43.6765 94.804 42.1848 93.3529 41.796C91.9017 41.4071 90.41 42.2683 90.0214 43.7195Z" fill="url(#paint8_linear)"/>
<path d="M114.116 43.135C113.028 42.8434 112.382 41.7247 112.674 40.6363C112.965 39.5479 114.084 38.902 115.172 39.1936C116.261 39.4852 116.906 40.604 116.615 41.6924C116.323 42.7808 115.204 43.4266 114.116 43.135Z" fill="url(#paint9_linear)"/>
<path d="M59.7877 85.607C59.4959 86.6954 60.142 87.8142 61.2305 88.1058C62.319 88.3974 63.4373 87.7516 63.7291 86.6631C64.021 85.5747 63.3749 84.456 62.2864 84.1644C61.1979 83.8728 60.0796 84.5186 59.7877 85.607Z" fill="url(#paint10_linear)"/>
</g>
<mask id="mask0" mask-type="alpha" maskUnits="userSpaceOnUse" x="0" y="0" width="568" height="219">
<rect width="567.3" height="219" rx="8" fill="url(#paint11_linear)"/>
</mask>
<g mask="url(#mask0)">
<g filter="url(#filter1_f)">
<circle cx="47.5239" cy="10.5066" r="62.5668" transform="rotate(105 47.5239 10.5066)" fill="#5E5EF2"/>
</g>
</g>
<path d="M378.809 19.496C379.313 18.7422 381.296 18.7422 381.8 19.496L383.868 22.5907L389.625 23.7024C391.027 23.9732 391.027 25.0393 389.625 25.3102L383.868 26.4219L381.8 29.5165C381.296 30.2704 379.313 30.2704 378.809 29.5165L376.741 26.4219L370.984 25.3101C369.582 25.0393 369.582 23.9732 370.984 23.7024L376.741 22.5907L378.809 19.496Z" fill="white"/>
<path d="M336.34 61.0305C336.592 60.6536 337.584 60.6536 337.836 61.0305L338.87 62.5779L341.748 63.1337C342.449 63.2691 342.449 63.8022 341.748 63.9376L338.87 64.4935L337.836 66.0408C337.584 66.4177 336.592 66.4177 336.34 66.0408L335.306 64.4935L332.428 63.9376C331.727 63.8022 331.727 63.2691 332.428 63.1337L335.306 62.5779L336.34 61.0305Z" fill="white"/>
<path d="M510.686 64.8418C511.021 64.3393 512.344 64.3393 512.679 64.8418L514.058 66.9049L517.896 67.6461C518.831 67.8266 518.831 68.5374 517.896 68.7179L514.058 69.4591L512.679 71.5222C512.344 72.0247 511.021 72.0247 510.686 71.5222L509.307 69.4591L505.469 68.7179C504.534 68.5374 504.534 67.8266 505.469 67.6461L509.307 66.9049L510.686 64.8418Z" fill="white"/>
<path d="M549.464 9.73217C549.548 9.60653 549.878 9.60653 549.962 9.73217L550.307 10.2479L551.266 10.4332C551.5 10.4784 551.5 10.6561 551.266 10.7012L550.307 10.8865L549.962 11.4023C549.878 11.5279 549.548 11.5279 549.464 11.4023L549.119 10.8865L548.16 10.7012C547.926 10.6561 547.926 10.4784 548.16 10.4332L549.119 10.2479L549.464 9.73217Z" fill="white"/>
<path d="M279.544 37.7045C279.712 37.4532 280.373 37.4532 280.541 37.7045L281.23 38.7361L283.149 39.1067C283.616 39.1969 283.616 39.5523 283.149 39.6426L281.23 40.0131L280.541 41.0447C280.373 41.296 279.712 41.296 279.544 41.0447L278.854 40.0131L276.936 39.6426C276.468 39.5523 276.468 39.1969 276.936 39.1067L278.854 38.7361L279.544 37.7045Z" fill="white"/>
<path d="M80.9671 88.1432L0 127.589V185.076H281.05L250.521 174.047C195.009 153.992 142.907 125.529 96.0368 89.6548C91.7046 86.339 85.8715 85.7539 80.9671 88.1432Z" fill="url(#paint12_linear)"/>
<path d="M413.737 66.4477L567 105.677V162.85L35 181L92.7876 170.031C197.866 150.086 296.491 103.629 385.212 67.951C393.412 64.6534 404.454 64.0715 413.737 66.4477Z" fill="url(#paint13_linear)"/>
<path d="M0 182.254L281.236 157.953C376.277 149.741 473.453 151.757 567 163.882V211.651C567 215.71 560.808 219 553.171 219H13.8293C6.19156 219 0 215.71 0 211.651V182.254Z" fill="#4343DA"/>
<ellipse opacity="0.1" cx="230.863" cy="163.337" rx="14.6" ry="1.825" fill="url(#paint14_linear)"/>
<rect x="545.513" y="120" width="0.9125" height="41.975" rx="0.45625" fill="white"/>
<path d="M530 121.706C530 121.706 533.232 120.168 537.756 121.375C542.281 122.582 545.512 121.375 545.512 121.375V132.239C545.512 132.239 542.281 133.446 537.756 132.239C533.232 131.031 530 132.57 530 132.57L533.232 127.138L530 121.706Z" fill="#E85A57"/>
<path opacity="0.1" fill-rule="evenodd" clip-rule="evenodd" d="M207.817 219H204.225C203.886 217.926 203.816 216.861 204.572 216.179C204.808 215.966 205.021 215.85 205.215 215.815C205.399 215.748 205.642 215.742 205.953 215.809C207.221 216.08 207.64 217.558 207.817 219ZM227.995 170.9C227.618 170.297 228.278 169.299 229.181 168.819C229.645 168.573 230.102 168.276 230.471 167.931C231.702 166.783 233.4 165.342 234.786 166.17C235.059 166.333 235.233 166.503 235.323 166.678C235.441 166.835 235.518 167.066 235.545 167.382C235.687 168.991 233.649 169.891 232.079 170.498C231.608 170.68 231.141 170.961 230.718 171.271C229.892 171.874 228.706 172.034 228.328 171.431L227.995 170.9ZM213.545 181.69C213.095 181.139 213.626 180.067 214.462 179.477C214.891 179.175 215.307 178.823 215.63 178.436C216.708 177.142 218.212 175.5 219.691 176.149C219.982 176.276 220.176 176.423 220.287 176.585C220.424 176.726 220.529 176.946 220.596 177.256C220.937 178.835 219.028 179.982 217.546 180.781C217.102 181.02 216.674 181.358 216.292 181.718C215.549 182.419 214.392 182.726 213.942 182.175L213.545 181.69ZM224.262 181.422C223.924 180.795 224.649 179.843 225.581 179.423C226.06 179.207 226.535 178.94 226.926 178.621C228.229 177.555 230.017 176.228 231.347 177.145C231.608 177.325 231.771 177.506 231.849 177.686C231.957 177.851 232.018 178.086 232.025 178.404C232.061 180.019 229.97 180.783 228.363 181.287C227.882 181.437 227.397 181.688 226.954 181.969C226.091 182.518 224.897 182.6 224.56 181.973L224.262 181.422ZM206.424 205.84C205.972 206.758 206.018 207.953 206.678 208.222L207.258 208.458C207.917 208.727 208.786 207.904 209.103 206.932C209.266 206.433 209.481 205.932 209.756 205.51C210.676 204.099 211.804 202.179 210.749 200.956C210.542 200.715 210.344 200.573 210.157 200.514C209.982 200.425 209.741 200.389 209.425 200.416C207.815 200.553 207.279 202.715 206.952 204.367C206.853 204.861 206.656 205.37 206.424 205.84ZM239.796 171.107C239.076 171.833 238.74 172.982 239.28 173.446L239.755 173.854C240.295 174.318 241.38 173.814 241.99 172.993C242.303 172.572 242.665 172.165 243.061 171.851C244.381 170.806 246.06 169.343 245.448 167.848C245.328 167.554 245.186 167.357 245.027 167.242C244.889 167.102 244.673 166.991 244.364 166.916C242.794 166.535 241.599 168.415 240.764 169.877C240.514 170.315 240.165 170.734 239.796 171.107ZM212.633 193.552C212.182 193.001 212.713 191.929 213.549 191.34C213.978 191.038 214.394 190.686 214.717 190.298C215.795 189.004 217.3 187.362 218.779 188.011C219.07 188.139 219.264 188.286 219.375 188.448C219.511 188.589 219.616 188.808 219.684 189.119C220.025 190.697 218.116 191.845 216.634 192.643C216.189 192.882 215.762 193.22 215.38 193.58C214.636 194.282 213.479 194.589 213.029 194.038L212.633 193.552ZM204.867 194.499C204.279 195.336 204.141 196.524 204.751 196.891L205.287 197.214C205.897 197.581 206.883 196.902 207.346 195.99C207.584 195.522 207.873 195.06 208.21 194.685C209.336 193.433 210.746 191.709 209.892 190.338C209.724 190.068 209.551 189.897 209.374 189.811C209.215 189.695 208.983 189.623 208.666 189.601C207.055 189.489 206.193 191.543 205.615 193.124C205.442 193.598 205.168 194.07 204.867 194.499ZM196.923 212.517C196.658 213.505 196.936 214.669 197.635 214.804L198.249 214.923C198.948 215.059 199.641 214.083 199.764 213.068C199.827 212.547 199.939 212.014 200.128 211.546C200.756 209.984 201.49 207.881 200.217 206.886C199.967 206.69 199.746 206.589 199.55 206.568C199.361 206.514 199.119 206.525 198.813 206.613C197.261 207.061 197.155 209.286 197.155 210.969C197.154 211.474 197.06 212.011 196.923 212.517Z" fill="black"/>
<defs>
<filter id="filter0_f" x="12.124" y="4.90967" width="106.561" height="85.2662" filterUnits="userSpaceOnUse" color-interpolation-filters="sRGB">
<feFlood flood-opacity="0" result="BackgroundImageFix"/>
<feBlend mode="normal" in="SourceGraphic" in2="BackgroundImageFix" result="shape"/>
<feGaussianBlur stdDeviation="1" result="effect1_foregroundBlur"/>
</filter>
<filter id="filter1_f" x="-69.1045" y="-106.122" width="233.257" height="233.257" filterUnits="userSpaceOnUse" color-interpolation-filters="sRGB">
<feFlood flood-opacity="0" result="BackgroundImageFix"/>
<feBlend mode="normal" in="SourceGraphic" in2="BackgroundImageFix" result="shape"/>
<feGaussianBlur stdDeviation="20" result="effect1_foregroundBlur"/>
</filter>
<linearGradient id="paint0_linear" x1="567.3" y1="-1.11099e-05" x2="272.387" y2="415.831" gradientUnits="userSpaceOnUse">
<stop stop-color="#FA7B91"/>
<stop offset="1" stop-color="#4B4BF2"/>
</linearGradient>
<linearGradient id="paint1_linear" x1="121.819" y1="98.55" x2="121.819" y2="219" gradientUnits="userSpaceOnUse">
<stop stop-color="#4343DA"/>
<stop offset="1" stop-color="#5E5EF2"/>
</linearGradient>
<linearGradient id="paint2_linear" x1="172.463" y1="94.8999" x2="172.463" y2="193.45" gradientUnits="userSpaceOnUse">
<stop stop-color="#4343DA"/>
<stop offset="1" stop-color="#5E5EF2"/>
</linearGradient>
<linearGradient id="paint3_linear" x1="94.4411" y1="88.3667" x2="40.8852" y2="-4.39472" gradientUnits="userSpaceOnUse">
<stop stop-color="white" stop-opacity="0.4"/>
<stop offset="1" stop-color="white" stop-opacity="0"/>
</linearGradient>
<linearGradient id="paint4_linear" x1="103.659" y1="105.811" x2="48.3068" y2="-21.3188" gradientUnits="userSpaceOnUse">
<stop stop-color="#5E5EF2"/>
<stop offset="1" stop-color="#5E5EF2"/>
</linearGradient>
<linearGradient id="paint5_linear" x1="103.659" y1="105.811" x2="48.3068" y2="-21.3188" gradientUnits="userSpaceOnUse">
<stop stop-color="#5E5EF2"/>
<stop offset="1" stop-color="#5E5EF2"/>
</linearGradient>
<linearGradient id="paint6_linear" x1="103.659" y1="105.811" x2="48.3068" y2="-21.3188" gradientUnits="userSpaceOnUse">
<stop stop-color="#5E5EF2"/>
<stop offset="1" stop-color="#5E5EF2"/>
</linearGradient>
<linearGradient id="paint7_linear" x1="103.659" y1="105.811" x2="48.3068" y2="-21.3188" gradientUnits="userSpaceOnUse">
<stop stop-color="#5E5EF2"/>
<stop offset="1" stop-color="#5E5EF2"/>
</linearGradient>
<linearGradient id="paint8_linear" x1="103.659" y1="105.811" x2="48.3068" y2="-21.3188" gradientUnits="userSpaceOnUse">
<stop stop-color="#5E5EF2"/>
<stop offset="1" stop-color="#5E5EF2"/>
</linearGradient>
<linearGradient id="paint9_linear" x1="103.659" y1="105.811" x2="48.3068" y2="-21.3188" gradientUnits="userSpaceOnUse">
<stop stop-color="#5E5EF2"/>
<stop offset="1" stop-color="#5E5EF2"/>
</linearGradient>
<linearGradient id="paint10_linear" x1="103.659" y1="105.811" x2="48.3068" y2="-21.3188" gradientUnits="userSpaceOnUse">
<stop stop-color="#5E5EF2"/>
<stop offset="1" stop-color="#5E5EF2"/>
</linearGradient>
<linearGradient id="paint11_linear" x1="283.65" y1="0" x2="283.65" y2="219" gradientUnits="userSpaceOnUse">
<stop stop-color="#4343DA"/>
<stop offset="1" stop-color="#5E5EF2"/>
</linearGradient>
<linearGradient id="paint12_linear" x1="140.525" y1="86.6875" x2="140.525" y2="185.076" gradientUnits="userSpaceOnUse">
<stop stop-color="#4343DA"/>
<stop offset="1" stop-color="#5E5EF2"/>
</linearGradient>
<linearGradient id="paint13_linear" x1="301" y1="65" x2="301" y2="181" gradientUnits="userSpaceOnUse">
<stop stop-color="#4343DA"/>
<stop offset="1" stop-color="#5E5EF2"/>
</linearGradient>
<linearGradient id="paint14_linear" x1="245.463" y1="163.337" x2="216.263" y2="163.337" gradientUnits="userSpaceOnUse">
<stop/>
<stop offset="1" stop-opacity="0"/>
</linearGradient>
</defs>
</svg>
