<svg width="24" height="24" viewBox="0 0 24 24" fill="none" xmlns="http://www.w3.org/2000/svg">
<path fill-rule="evenodd" clip-rule="evenodd" d="M21.7071 2.29292C21.9973 2.5831 22.0807 3.0211 21.9176 3.39764L13.2509 23.3976C13.0781 23.7966 12.6672 24.0381 12.2346 23.9951C11.802 23.9522 11.4467 23.6347 11.3556 23.2096L9.49114 14.5089L0.790499 12.6445C0.36539 12.5534 0.0478462 12.1981 0.00491551 11.7654C-0.0380152 11.3328 0.203505 10.922 0.602421 10.7491L20.6024 2.08247C20.979 1.91931 21.417 2.00275 21.7071 2.29292ZM11.4252 13.9891L12.6571 19.738L17.9953 7.41897L11.4252 13.9891ZM16.5811 6.00476L4.26206 11.343L10.0109 12.5749L16.5811 6.00476Z" fill="white"/>
</svg>
