<svg width="28" height="28" viewBox="0 0 28 28" fill="none" xmlns="http://www.w3.org/2000/svg">
<path fill-rule="evenodd" clip-rule="evenodd" d="M14 2C7.37258 2 2 7.37258 2 14C2 20.6274 7.37258 26 14 26C20.6274 26 26 20.6274 26 14C26 7.37258 20.6274 2 14 2ZM0 14C0 6.26801 6.26801 0 14 0C21.732 0 28 6.26801 28 14C28 21.732 21.732 28 14 28C6.26801 28 0 21.732 0 14Z" fill="#7B7B7B"/>
<path fill-rule="evenodd" clip-rule="evenodd" d="M8.00821 16.0572C8.52893 15.8731 9.10025 16.1461 9.2843 16.6668C9.97117 18.6101 11.8246 20 14 20C16.1755 20 18.0289 18.6101 18.7158 16.6668C18.8998 16.1461 19.4712 15.8731 19.9919 16.0572C20.5126 16.2412 20.7855 16.8126 20.6015 17.3333C19.641 20.0507 17.0495 22 14 22C10.9506 22 8.35909 20.0507 7.39862 17.3333C7.21457 16.8126 7.4875 16.2412 8.00821 16.0572Z" fill="#7B7B7B"/>
<path d="M20 10C20 11.1046 19.1046 12 18 12C16.8954 12 16 11.1046 16 10C16 8.89543 16.8954 8 18 8C19.1046 8 20 8.89543 20 10Z" fill="#7B7B7B"/>
<path d="M12 10C12 11.1046 11.1046 12 10 12C8.89543 12 8 11.1046 8 10C8 8.89543 8.89543 8 10 8C11.1046 8 12 8.89543 12 10Z" fill="#7B7B7B"/>
</svg>
