<svg width="36" height="30" viewBox="0 0 36 30" fill="none" xmlns="http://www.w3.org/2000/svg">
<path d="M36 3.65316C34.6753 4.25273 33.2519 4.65795 31.7579 4.84024C33.283 3.90723 34.454 2.42976 35.0054 0.669382C33.5556 1.54754 31.9694 2.16626 30.3154 2.49881C28.968 1.03369 27.0487 0.118042 24.9242 0.118042C20.8453 0.118042 17.5382 3.49354 17.5382 7.6568C17.5382 8.24775 17.6036 8.82306 17.7294 9.37498C11.5912 9.06048 6.14897 6.05919 2.50608 1.49804C1.87045 2.61149 1.50623 3.90665 1.50623 5.28809C1.50623 7.90369 2.81025 10.2111 4.79194 11.5631C3.61905 11.5256 2.47197 11.2023 1.44647 10.62C1.44605 10.6516 1.44605 10.6832 1.44605 10.7149C1.44605 14.3676 3.99192 17.4147 7.37058 18.1073C6.28297 18.4092 5.14213 18.4534 4.03523 18.2365C4.97503 21.2316 7.70273 23.4111 10.9346 23.4721C8.40684 25.494 5.22211 26.6993 1.76189 26.6993C1.16564 26.6993 0.577828 26.6636 0 26.594C3.26855 28.733 7.15078 29.9811 11.3217 29.9811C24.9071 29.9811 32.3359 18.4934 32.3359 8.5311C32.3359 8.20412 32.3288 7.879 32.3145 7.55574C33.7605 6.48878 35.0085 5.16725 36 3.65316Z" fill="#55ACEE"/>
</svg>
