<svg width="79" height="63" viewBox="0 0 79 63" fill="none" xmlns="http://www.w3.org/2000/svg">
<path d="M27.65 31.5C30.7749 31.5 33.8297 30.5763 36.428 28.8457C39.0263 27.115 41.0514 24.6552 42.2473 21.7773C43.4432 18.8993 43.7561 15.7325 43.1464 12.6773C42.5368 9.62213 41.032 6.81575 38.8223 4.61308C36.6126 2.4104 33.7973 0.910356 30.7324 0.302639C27.6675 -0.305078 24.4907 0.00682418 21.6036 1.1989C18.7165 2.39098 16.2489 4.4097 14.5128 6.99978C12.7767 9.58985 11.85 12.635 11.85 15.75C11.85 19.9272 13.5146 23.9332 16.4777 26.8869C19.4408 29.8406 23.4596 31.5 27.65 31.5ZM39.5 39.375C39.5089 38.0598 39.853 36.7684 40.4998 35.6221C39.9073 35.5606 39.3272 35.4375 38.71 35.4375H36.6486C33.8271 36.7345 30.757 37.4062 27.65 37.4062C24.543 37.4062 21.4729 36.7345 18.6514 35.4375H16.59C12.1904 35.4385 7.9712 37.1811 4.86018 40.2823C1.74917 43.3835 0.000981734 47.5893 0 51.975L0 57.0938C0 58.6602 0.624239 60.1625 1.73539 61.2701C2.84655 62.3777 4.35359 63 5.925 63H40.5986C39.8887 61.8078 39.5095 60.4489 39.5 59.0625V39.375ZM75.05 35.4375H71.1V25.5938C71.1 22.983 70.0596 20.4792 68.2077 18.6332C66.3558 16.7871 63.844 15.75 61.225 15.75C58.606 15.75 56.0942 16.7871 54.2423 18.6332C52.3904 20.4792 51.35 22.983 51.35 25.5938V35.4375H47.4C46.3524 35.4375 45.3477 35.8524 44.6069 36.5908C43.8662 37.3292 43.45 38.3307 43.45 39.375V59.0625C43.45 60.1068 43.8662 61.1083 44.6069 61.8467C45.3477 62.5852 46.3524 63 47.4 63H75.05C76.0976 63 77.1023 62.5852 77.8431 61.8467C78.5838 61.1083 79 60.1068 79 59.0625V39.375C79 38.3307 78.5838 37.3292 77.8431 36.5908C77.1023 35.8524 76.0976 35.4375 75.05 35.4375ZM61.225 53.1563C60.4438 53.1563 59.6801 52.9253 59.0305 52.4927C58.3809 52.06 57.8746 51.4451 57.5757 50.7256C57.2767 50.0061 57.1985 49.2144 57.3509 48.4506C57.5033 47.6868 57.8795 46.9852 58.4319 46.4345C58.9843 45.8839 59.6882 45.5088 60.4544 45.3569C61.2206 45.205 62.0148 45.283 62.7366 45.581C63.4584 45.879 64.0753 46.3837 64.5093 47.0312C64.9433 47.6787 65.175 48.44 65.175 49.2188C65.175 50.263 64.7588 51.2646 64.0181 52.003C63.2773 52.7414 62.2726 53.1563 61.225 53.1563ZM65.175 35.4375H57.275V25.5938C57.275 24.5495 57.6912 23.5479 58.4319 22.8095C59.1727 22.0711 60.1774 21.6563 61.225 21.6563C62.2726 21.6563 63.2773 22.0711 64.0181 22.8095C64.7588 23.5479 65.175 24.5495 65.175 25.5938V35.4375Z" fill="white"/>
</svg>
