<svg width="22" height="22" viewBox="0 0 22 22" fill="none" xmlns="http://www.w3.org/2000/svg">
<path d="M19 7.83334C17.9595 7.83325 16.9452 7.50682 16.1 6.90001C16.0527 7.02654 15.9681 7.13573 15.8574 7.21312C15.7467 7.2905 15.6151 7.33243 15.48 7.33334H6.51998C6.34317 7.33334 6.1736 7.2631 6.04857 7.13808C5.92355 7.01305 5.85331 6.84348 5.85331 6.66667C5.85331 6.48986 5.92355 6.32029 6.04857 6.19527C6.1736 6.07024 6.34317 6.00001 6.51998 6.00001H15.1333C14.5883 5.32841 14.2278 4.52629 14.0876 3.67282C13.9473 2.81936 14.032 1.94406 14.3333 1.13334C13.2496 0.821956 12.1275 0.664855 11 0.666672C5.11998 0.666672 0.333313 4.85334 0.333313 10C0.333313 15.1467 5.11998 19.3333 11 19.3333C12.1001 19.3321 13.1948 19.1795 14.2533 18.88L17.94 21.2267C18.0406 21.2912 18.1568 21.3276 18.2763 21.3318C18.3958 21.3361 18.5142 21.3081 18.6192 21.2508C18.7242 21.1936 18.8118 21.1091 18.873 21.0063C18.9341 20.9036 18.9664 20.7862 18.9666 20.6667V16.18C19.8008 15.3798 20.4665 14.4208 20.9244 13.3595C21.3824 12.2981 21.6234 11.1559 21.6333 10C21.6304 9.09219 21.4772 8.19113 21.18 7.33334C20.5007 7.66336 19.7552 7.83435 19 7.83334ZM13.5 14H8.49998C8.32317 14 8.1536 13.9298 8.02857 13.8047C7.90355 13.6797 7.83331 13.5101 7.83331 13.3333C7.83331 13.1565 7.90355 12.987 8.02857 12.8619C8.1536 12.7369 8.32317 12.6667 8.49998 12.6667H13.5C13.6768 12.6667 13.8464 12.7369 13.9714 12.8619C14.0964 12.987 14.1666 13.1565 14.1666 13.3333C14.1666 13.5101 14.0964 13.6797 13.9714 13.8047C13.8464 13.9298 13.6768 14 13.5 14ZM15.6666 10.6667H6.33331C6.1565 10.6667 5.98693 10.5964 5.86191 10.4714C5.73688 10.3464 5.66665 10.1768 5.66665 10C5.66665 9.82319 5.73688 9.65363 5.86191 9.5286C5.98693 9.40358 6.1565 9.33334 6.33331 9.33334H15.6666C15.8435 9.33334 16.013 9.40358 16.1381 9.5286C16.2631 9.65363 16.3333 9.82319 16.3333 10C16.3333 10.1768 16.2631 10.3464 16.1381 10.4714C16.013 10.5964 15.8435 10.6667 15.6666 10.6667Z" fill="white"/>
</svg>
