<svg width="182" height="32" viewBox="0 0 182 32" fill="none" xmlns="http://www.w3.org/2000/svg">
<path d="M13.3154 24H7.99805L0.117188 2.90625H6.0498L11.8945 19.8838L17.1826 2.90625H20.7861L13.3154 24ZM25.6201 15.9727C26.2256 16.1094 26.8311 16.2168 27.4365 16.2949C28.042 16.373 28.6523 16.4121 29.2676 16.4121C29.9121 16.4121 30.5078 16.3535 31.0547 16.2363C31.6113 16.1094 32.0898 15.9043 32.4902 15.6211C32.9004 15.3281 33.2227 14.9424 33.457 14.4639C33.6914 13.9854 33.8086 13.3896 33.8086 12.6768C33.8086 12.1006 33.7305 11.5732 33.5742 11.0947C33.418 10.6162 33.1836 10.2061 32.8711 9.86426C32.5684 9.52246 32.1924 9.25879 31.7432 9.07324C31.2939 8.87793 30.7715 8.78027 30.1758 8.78027C29.6191 8.78027 29.1162 8.88281 28.667 9.08789C28.2275 9.29297 27.8369 9.57129 27.4951 9.92285C27.1631 10.2646 26.875 10.665 26.6309 11.124C26.3965 11.583 26.2012 12.0615 26.0449 12.5596C25.8887 13.0576 25.7764 13.5605 25.708 14.0684C25.6396 14.5762 25.6055 15.0547 25.6055 15.5039C25.6055 15.582 25.6055 15.6602 25.6055 15.7383C25.6055 15.8164 25.6104 15.8945 25.6201 15.9727ZM37.8223 12.6328C37.8223 13.3262 37.71 13.9463 37.4854 14.4932C37.2607 15.0303 36.9531 15.5039 36.5625 15.9141C36.1816 16.3242 35.7373 16.6709 35.2295 16.9541C34.7217 17.2373 34.1797 17.4717 33.6035 17.6572C33.0273 17.833 32.4316 17.96 31.8164 18.0381C31.2109 18.1162 30.6201 18.1553 30.0439 18.1553C29.3115 18.1553 28.5889 18.1064 27.876 18.0088C27.1631 17.9014 26.46 17.7354 25.7666 17.5107C25.874 18.1553 26.0449 18.7705 26.2793 19.3564C26.5137 19.9326 26.8262 20.4404 27.2168 20.8799C27.6074 21.3096 28.0859 21.6514 28.6523 21.9053C29.2285 22.1592 29.9072 22.2861 30.6885 22.2861C31.2061 22.2861 31.6992 22.208 32.168 22.0518C32.6367 21.8955 33.0664 21.6758 33.457 21.3926C33.8477 21.1094 34.1895 20.7725 34.4824 20.3818C34.7852 19.9912 35.0293 19.5566 35.2148 19.0781L37.3535 19.8691C37.0312 20.6406 36.5869 21.3096 36.0205 21.876C35.4639 22.4326 34.8291 22.8965 34.1162 23.2676C33.4131 23.6289 32.6611 23.8975 31.8604 24.0732C31.0693 24.249 30.2832 24.3369 29.502 24.3369C28.2129 24.3369 27.0215 24.1221 25.9277 23.6924C24.834 23.2529 23.8916 22.6426 23.1006 21.8613C22.3096 21.0801 21.6895 20.1475 21.2402 19.0635C20.791 17.9795 20.5664 16.793 20.5664 15.5039C20.5664 14.2148 20.791 13.0283 21.2402 11.9443C21.6895 10.8604 22.3096 9.92773 23.1006 9.14648C23.8916 8.36523 24.834 7.75977 25.9277 7.33008C27.0215 6.89062 28.2129 6.6709 29.502 6.6709C30.127 6.6709 30.7666 6.71484 31.4209 6.80273C32.0752 6.89062 32.71 7.03223 33.3252 7.22754C33.9404 7.41309 34.5215 7.65723 35.0684 7.95996C35.6152 8.2627 36.0889 8.63867 36.4893 9.08789C36.8994 9.52734 37.2217 10.04 37.4561 10.626C37.7002 11.2119 37.8223 11.8809 37.8223 12.6328ZM55.4736 18.5947C55.4736 19.3369 55.3662 19.9961 55.1514 20.5723C54.9365 21.1484 54.6436 21.6514 54.2725 22.0811C53.9014 22.501 53.4619 22.8574 52.9541 23.1504C52.4463 23.4336 51.8994 23.6631 51.3135 23.8389C50.7373 24.0146 50.1318 24.1416 49.4971 24.2197C48.8623 24.2979 48.2324 24.3369 47.6074 24.3369C46.7676 24.3369 46.0254 24.2832 45.3809 24.1758C44.7363 24.0684 44.1211 23.8975 43.5352 23.6631C42.9492 23.4189 42.3633 23.1064 41.7773 22.7256C41.2012 22.3447 40.5566 21.8809 39.8438 21.334L42.7295 18.9756C42.9932 19.4736 43.3398 19.9277 43.7695 20.3379C44.209 20.7383 44.6631 21.085 45.1318 21.3779C45.6006 21.6709 46.0547 21.8955 46.4941 22.0518C46.9336 22.208 47.29 22.2861 47.5635 22.2861C47.7881 22.2861 48.042 22.2812 48.3252 22.2715C48.6084 22.252 48.8965 22.2227 49.1895 22.1836C49.4824 22.1348 49.7705 22.0664 50.0537 21.9785C50.3369 21.8906 50.5859 21.7734 50.8008 21.627C51.0254 21.4707 51.2012 21.2803 51.3281 21.0557C51.4648 20.8213 51.5332 20.543 51.5332 20.2207C51.5332 19.8887 51.4453 19.6006 51.2695 19.3564C51.1035 19.1025 50.8838 18.8828 50.6104 18.6973C50.3369 18.5117 50.0244 18.3555 49.6729 18.2285C49.3213 18.1016 48.9648 17.9893 48.6035 17.8916C48.252 17.7939 47.9102 17.7109 47.5781 17.6426C47.2461 17.5645 46.958 17.4912 46.7139 17.4229C46.2646 17.2959 45.791 17.1689 45.293 17.042C44.7949 16.9053 44.3018 16.7539 43.8135 16.5879C43.3252 16.4121 42.8564 16.207 42.4072 15.9727C41.9678 15.7383 41.5771 15.46 41.2354 15.1377C40.9033 14.8057 40.6348 14.4199 40.4297 13.9805C40.2344 13.5312 40.1367 13.0088 40.1367 12.4131C40.1367 11.3193 40.3516 10.4062 40.7812 9.67383C41.2207 8.93164 41.7969 8.34082 42.5098 7.90137C43.2227 7.45215 44.0332 7.13477 44.9414 6.94922C45.8496 6.76367 46.7725 6.6709 47.71 6.6709C48.3545 6.6709 49.0332 6.73926 49.7461 6.87598C50.459 7.00293 51.1523 7.19824 51.8262 7.46191C52.5 7.71582 53.1299 8.02832 53.7158 8.39941C54.3018 8.77051 54.79 9.19531 55.1807 9.67383L52.2949 12.0469C52.0801 11.4609 51.7969 10.958 51.4453 10.5381C51.1035 10.1182 50.7275 9.77637 50.3174 9.5127C49.917 9.23926 49.502 9.03906 49.0723 8.91211C48.6523 8.78516 48.2617 8.72168 47.9004 8.72168C47.5488 8.72168 47.1533 8.73633 46.7139 8.76562C46.2744 8.79492 45.8594 8.87793 45.4688 9.01465C45.0879 9.15137 44.7607 9.36133 44.4873 9.64453C44.2236 9.91797 44.0918 10.2988 44.0918 10.7871C44.0918 11.1387 44.1699 11.4414 44.3262 11.6953C44.4922 11.9395 44.707 12.1543 44.9707 12.3398C45.2344 12.5156 45.5322 12.667 45.8643 12.7939C46.2061 12.9111 46.5527 13.0186 46.9043 13.1162C47.2559 13.2041 47.5977 13.2822 47.9297 13.3506C48.2617 13.4189 48.5596 13.4922 48.8232 13.5703C49.2725 13.6973 49.7461 13.8291 50.2441 13.9658C50.752 14.0928 51.25 14.2441 51.7383 14.4199C52.2266 14.5859 52.6953 14.7861 53.1445 15.0205C53.6035 15.2451 54.0039 15.5234 54.3457 15.8555C54.6875 16.1875 54.9609 16.5781 55.166 17.0273C55.3711 17.4668 55.4736 17.9893 55.4736 18.5947ZM76.5967 15.5039C76.5967 16.7344 76.4111 17.8867 76.04 18.9609C75.6689 20.0352 75.1318 20.9727 74.4287 21.7734C73.7256 22.5645 72.8662 23.1895 71.8506 23.6484C70.835 24.1074 69.6826 24.3369 68.3936 24.3369C67.4072 24.3369 66.499 24.1465 65.6689 23.7656C64.8486 23.375 64.1455 22.7793 63.5596 21.9785V31.8076H58.6084V7.08105H60.5127L62.71 10.7578C62.9248 10.1426 63.2178 9.58594 63.5889 9.08789C63.9697 8.58008 64.4043 8.15039 64.8926 7.79883C65.3906 7.4375 65.9326 7.15918 66.5186 6.96387C67.1143 6.76855 67.7393 6.6709 68.3936 6.6709C69.6826 6.6709 70.835 6.90039 71.8506 7.35938C72.8662 7.81836 73.7256 8.44824 74.4287 9.24902C75.1318 10.04 75.6689 10.9727 76.04 12.0469C76.4111 13.1211 76.5967 14.2734 76.5967 15.5039ZM71.5723 15.5039C71.5723 15.0742 71.5479 14.6201 71.499 14.1416C71.46 13.6533 71.3867 13.1699 71.2793 12.6914C71.1719 12.2129 71.0205 11.7539 70.8252 11.3145C70.6396 10.875 70.4004 10.4893 70.1074 10.1572C69.8145 9.81543 69.458 9.54688 69.0381 9.35156C68.6279 9.14648 68.1494 9.04395 67.6025 9.04395C67.0361 9.04395 66.543 9.1416 66.123 9.33691C65.7129 9.53223 65.3564 9.80078 65.0537 10.1426C64.7607 10.4746 64.5166 10.8604 64.3213 11.2998C64.1357 11.7295 63.9893 12.1836 63.8818 12.6621C63.7744 13.1406 63.6963 13.624 63.6475 14.1123C63.6084 14.6006 63.5889 15.0645 63.5889 15.5039C63.5889 15.8945 63.6182 16.3291 63.6768 16.8076C63.7354 17.2764 63.8281 17.75 63.9551 18.2285C64.082 18.707 64.248 19.1709 64.4531 19.6201C64.6582 20.0693 64.9072 20.4697 65.2002 20.8213C65.5029 21.1729 65.8496 21.4561 66.2402 21.6709C66.6406 21.876 67.0947 21.9785 67.6025 21.9785C68.1592 21.9785 68.6426 21.8809 69.0527 21.6855C69.4629 21.4805 69.8145 21.2119 70.1074 20.8799C70.4004 20.5381 70.6396 20.1475 70.8252 19.708C71.0205 19.2686 71.1719 18.8096 71.2793 18.3311C71.3867 17.8525 71.46 17.3691 71.499 16.8809C71.5479 16.3926 71.5723 15.9336 71.5723 15.5039ZM96.8262 24H91.875V21.9785C91.2891 22.7793 90.5811 23.375 89.751 23.7656C88.9307 24.1465 88.0273 24.3369 87.041 24.3369C85.752 24.3369 84.5996 24.1074 83.584 23.6484C82.5684 23.1895 81.709 22.5645 81.0059 21.7734C80.3027 20.9727 79.7656 20.0352 79.3945 18.9609C79.0234 17.8867 78.8379 16.7344 78.8379 15.5039C78.8379 14.2734 79.0234 13.1211 79.3945 12.0469C79.7656 10.9727 80.3027 10.04 81.0059 9.24902C81.709 8.44824 82.5684 7.81836 83.584 7.35938C84.5996 6.90039 85.752 6.6709 87.041 6.6709C87.6953 6.6709 88.3154 6.76855 88.9014 6.96387C89.4971 7.15918 90.0391 7.4375 90.5273 7.79883C91.0254 8.15039 91.46 8.58008 91.8311 9.08789C92.2119 9.58594 92.5098 10.1426 92.7246 10.7578L94.9219 7.08105H96.8262V24ZM91.8457 15.5039C91.8457 15.0645 91.8213 14.6006 91.7725 14.1123C91.7334 13.624 91.6602 13.1406 91.5527 12.6621C91.4453 12.1836 91.2939 11.7295 91.0986 11.2998C90.9131 10.8604 90.6689 10.4746 90.3662 10.1426C90.0732 9.80078 89.7168 9.53223 89.2969 9.33691C88.877 9.1416 88.3887 9.04395 87.832 9.04395C87.2754 9.04395 86.792 9.14648 86.3818 9.35156C85.9717 9.54688 85.6201 9.81543 85.3271 10.1572C85.0342 10.4893 84.79 10.875 84.5947 11.3145C84.4092 11.7539 84.2627 12.2129 84.1553 12.6914C84.0479 13.1699 83.9697 13.6533 83.9209 14.1416C83.8818 14.6201 83.8623 15.0742 83.8623 15.5039C83.8623 15.9336 83.8818 16.3926 83.9209 16.8809C83.9697 17.3691 84.0479 17.8525 84.1553 18.3311C84.2627 18.8096 84.4092 19.2686 84.5947 19.708C84.79 20.1475 85.0342 20.5381 85.3271 20.8799C85.6201 21.2119 85.9717 21.4805 86.3818 21.6855C86.792 21.8809 87.2754 21.9785 87.832 21.9785C88.3398 21.9785 88.7891 21.876 89.1797 21.6709C89.5801 21.4561 89.9268 21.1729 90.2197 20.8213C90.5225 20.4697 90.7764 20.0693 90.9814 19.6201C91.1865 19.1709 91.3525 18.707 91.4795 18.2285C91.6064 17.75 91.6992 17.2764 91.7578 16.8076C91.8164 16.3291 91.8457 15.8945 91.8457 15.5039ZM105.776 21.8027C105.776 22.1738 105.708 22.5254 105.571 22.8574C105.435 23.1797 105.244 23.4629 105 23.707C104.756 23.9414 104.473 24.127 104.15 24.2637C103.828 24.4102 103.481 24.4834 103.11 24.4834C102.739 24.4834 102.393 24.4102 102.07 24.2637C101.748 24.127 101.465 23.9414 101.221 23.707C100.977 23.4629 100.786 23.1797 100.649 22.8574C100.513 22.5254 100.444 22.1738 100.444 21.8027C100.444 21.4414 100.513 21.0996 100.649 20.7773C100.786 20.4453 100.977 20.1621 101.221 19.9277C101.465 19.6836 101.748 19.4932 102.07 19.3564C102.393 19.21 102.739 19.1367 103.11 19.1367C103.481 19.1367 103.828 19.21 104.15 19.3564C104.473 19.4932 104.756 19.6836 105 19.9277C105.244 20.1621 105.435 20.4453 105.571 20.7773C105.708 21.0996 105.776 21.4414 105.776 21.8027ZM124.995 11.2705L122.856 12.1201C122.515 11.0459 121.943 10.2207 121.143 9.64453C120.342 9.06836 119.38 8.78027 118.257 8.78027C117.651 8.78027 117.109 8.87793 116.631 9.07324C116.162 9.25879 115.747 9.51758 115.386 9.84961C115.034 10.1816 114.731 10.5674 114.478 11.0068C114.233 11.4463 114.033 11.915 113.877 12.4131C113.721 12.9111 113.608 13.4287 113.54 13.9658C113.472 14.4932 113.438 15.0059 113.438 15.5039C113.438 16.041 113.467 16.583 113.525 17.1299C113.584 17.6768 113.682 18.2041 113.818 18.7119C113.965 19.21 114.155 19.6787 114.39 20.1182C114.624 20.5479 114.917 20.9238 115.269 21.2461C115.63 21.5684 116.055 21.8223 116.543 22.0078C117.041 22.1934 117.612 22.2861 118.257 22.2861C118.774 22.2861 119.268 22.208 119.736 22.0518C120.205 21.8955 120.635 21.6758 121.025 21.3926C121.416 21.1094 121.763 20.7725 122.065 20.3818C122.368 19.9912 122.607 19.5566 122.783 19.0781L124.937 19.8691C124.614 20.6406 124.185 21.3096 123.647 21.876C123.12 22.4326 122.52 22.8965 121.846 23.2676C121.172 23.6289 120.449 23.8975 119.678 24.0732C118.906 24.249 118.125 24.3369 117.334 24.3369C116.055 24.3369 114.868 24.1221 113.774 23.6924C112.681 23.2529 111.733 22.6426 110.933 21.8613C110.142 21.0703 109.521 20.1377 109.072 19.0635C108.623 17.9795 108.398 16.793 108.398 15.5039C108.398 14.2051 108.618 13.0137 109.058 11.9297C109.507 10.8457 110.127 9.91309 110.918 9.13184C111.709 8.35059 112.651 7.74512 113.745 7.31543C114.839 6.88574 116.035 6.6709 117.334 6.6709C118.154 6.6709 118.955 6.76367 119.736 6.94922C120.518 7.125 121.24 7.40332 121.904 7.78418C122.578 8.15527 123.179 8.62891 123.706 9.20508C124.243 9.78125 124.673 10.4697 124.995 11.2705ZM145.225 14.3027C145.225 15.4453 145.083 16.6367 144.8 17.877C144.526 19.1172 144.141 20.333 143.643 21.5244C143.145 22.7158 142.549 23.834 141.855 24.8789C141.162 25.9336 140.4 26.8418 139.57 27.6035L137.71 26.5928C137.974 26.1045 138.223 25.5576 138.457 24.9521C138.691 24.3467 138.901 23.707 139.087 23.0332C139.282 22.3496 139.453 21.6465 139.6 20.9238C139.756 20.2012 139.883 19.4883 139.98 18.7852C140.088 18.0723 140.166 17.3838 140.215 16.7197C140.273 16.0459 140.303 15.4209 140.303 14.8447C140.303 14.4639 140.288 14.0586 140.259 13.6289C140.229 13.1895 140.166 12.7549 140.068 12.3252C139.98 11.8857 139.858 11.4658 139.702 11.0654C139.546 10.665 139.336 10.3135 139.072 10.0107C138.818 9.70801 138.506 9.46387 138.135 9.27832C137.773 9.09277 137.344 9 136.846 9C136.357 9 135.923 9.1123 135.542 9.33691C135.161 9.55176 134.824 9.83984 134.531 10.2012C134.238 10.5527 133.984 10.958 133.77 11.417C133.564 11.876 133.394 12.3496 133.257 12.8379C133.13 13.3164 133.037 13.79 132.979 14.2588C132.92 14.7275 132.891 15.1475 132.891 15.5186V24H127.925V0.855469H132.876V9.57129C133.511 8.64355 134.287 7.93066 135.205 7.43262C136.133 6.9248 137.158 6.6709 138.281 6.6709C139.453 6.6709 140.474 6.86133 141.343 7.24219C142.212 7.62305 142.935 8.15527 143.511 8.83887C144.087 9.5127 144.517 10.3184 144.8 11.2559C145.083 12.1836 145.225 13.1992 145.225 14.3027ZM165.527 24H160.576V21.9785C159.99 22.7793 159.282 23.375 158.452 23.7656C157.632 24.1465 156.729 24.3369 155.742 24.3369C154.453 24.3369 153.301 24.1074 152.285 23.6484C151.27 23.1895 150.41 22.5645 149.707 21.7734C149.004 20.9727 148.467 20.0352 148.096 18.9609C147.725 17.8867 147.539 16.7344 147.539 15.5039C147.539 14.2734 147.725 13.1211 148.096 12.0469C148.467 10.9727 149.004 10.04 149.707 9.24902C150.41 8.44824 151.27 7.81836 152.285 7.35938C153.301 6.90039 154.453 6.6709 155.742 6.6709C156.396 6.6709 157.017 6.76855 157.603 6.96387C158.198 7.15918 158.74 7.4375 159.229 7.79883C159.727 8.15039 160.161 8.58008 160.532 9.08789C160.913 9.58594 161.211 10.1426 161.426 10.7578L163.623 7.08105H165.527V24ZM160.547 15.5039C160.547 15.0645 160.522 14.6006 160.474 14.1123C160.435 13.624 160.361 13.1406 160.254 12.6621C160.146 12.1836 159.995 11.7295 159.8 11.2998C159.614 10.8604 159.37 10.4746 159.067 10.1426C158.774 9.80078 158.418 9.53223 157.998 9.33691C157.578 9.1416 157.09 9.04395 156.533 9.04395C155.977 9.04395 155.493 9.14648 155.083 9.35156C154.673 9.54688 154.321 9.81543 154.028 10.1572C153.735 10.4893 153.491 10.875 153.296 11.3145C153.11 11.7539 152.964 12.2129 152.856 12.6914C152.749 13.1699 152.671 13.6533 152.622 14.1416C152.583 14.6201 152.563 15.0742 152.563 15.5039C152.563 15.9336 152.583 16.3926 152.622 16.8809C152.671 17.3691 152.749 17.8525 152.856 18.3311C152.964 18.8096 153.11 19.2686 153.296 19.708C153.491 20.1475 153.735 20.5381 154.028 20.8799C154.321 21.2119 154.673 21.4805 155.083 21.6855C155.493 21.8809 155.977 21.9785 156.533 21.9785C157.041 21.9785 157.49 21.876 157.881 21.6709C158.281 21.4561 158.628 21.1729 158.921 20.8213C159.224 20.4697 159.478 20.0693 159.683 19.6201C159.888 19.1709 160.054 18.707 160.181 18.2285C160.308 17.75 160.4 17.2764 160.459 16.8076C160.518 16.3291 160.547 15.8945 160.547 15.5039ZM176.045 24H171.079V9.04395H168.003V7.08105H171.079V0.855469H176.045V7.08105H181.172V9.04395H176.045V24Z" fill="url(#paint0_linear)"/>
<defs>
<linearGradient id="paint0_linear" x1="0" y1="112.786" x2="180.141" y2="112.786" gradientUnits="userSpaceOnUse">
<stop stop-color="#AA31FF"/>
<stop offset="1" stop-color="#24D2FD"/>
</linearGradient>
</defs>
</svg>
