<svg width="121" height="22" viewBox="0 0 121 22" fill="none" xmlns="http://www.w3.org/2000/svg">
<path d="M8.87695 16H5.33203L0.078125 1.9375H4.0332L7.92969 13.2559L11.4551 1.9375H13.8574L8.87695 16ZM17.0801 10.6484C17.4837 10.7396 17.8874 10.8112 18.291 10.8633C18.6947 10.9154 19.1016 10.9414 19.5117 10.9414C19.9414 10.9414 20.3385 10.9023 20.7031 10.8242C21.0742 10.7396 21.3932 10.6029 21.6602 10.4141C21.9336 10.2188 22.1484 9.96159 22.3047 9.64258C22.4609 9.32357 22.5391 8.92643 22.5391 8.45117C22.5391 8.06706 22.487 7.71549 22.3828 7.39648C22.2786 7.07747 22.1224 6.80404 21.9141 6.57617C21.7122 6.34831 21.4616 6.17253 21.1621 6.04883C20.8626 5.91862 20.5143 5.85352 20.1172 5.85352C19.7461 5.85352 19.4108 5.92188 19.1113 6.05859C18.8184 6.19531 18.5579 6.38086 18.3301 6.61523C18.1087 6.8431 17.9167 7.11003 17.7539 7.41602C17.5977 7.72201 17.4674 8.04102 17.3633 8.37305C17.2591 8.70508 17.1842 9.04036 17.1387 9.37891C17.0931 9.71745 17.0703 10.0365 17.0703 10.3359C17.0703 10.388 17.0703 10.4401 17.0703 10.4922C17.0703 10.5443 17.0736 10.5964 17.0801 10.6484ZM25.2148 8.42188C25.2148 8.88411 25.14 9.29753 24.9902 9.66211C24.8405 10.0202 24.6354 10.3359 24.375 10.6094C24.1211 10.8828 23.8249 11.1139 23.4863 11.3027C23.1478 11.4915 22.7865 11.6478 22.4023 11.7715C22.0182 11.8887 21.6211 11.9733 21.2109 12.0254C20.8073 12.0775 20.4134 12.1035 20.0293 12.1035C19.541 12.1035 19.0592 12.071 18.584 12.0059C18.1087 11.9342 17.64 11.8236 17.1777 11.6738C17.2493 12.1035 17.3633 12.5137 17.5195 12.9043C17.6758 13.2884 17.8841 13.627 18.1445 13.9199C18.4049 14.2064 18.724 14.4342 19.1016 14.6035C19.4857 14.7728 19.9382 14.8574 20.459 14.8574C20.804 14.8574 21.1328 14.8053 21.4453 14.7012C21.7578 14.597 22.0443 14.4505 22.3047 14.2617C22.5651 14.0729 22.793 13.8483 22.9883 13.5879C23.1901 13.3275 23.3529 13.0378 23.4766 12.7188L24.9023 13.2461C24.6875 13.7604 24.3913 14.2064 24.0137 14.584C23.6426 14.9551 23.2194 15.2643 22.7441 15.5117C22.2754 15.7526 21.7741 15.9316 21.2402 16.0488C20.7129 16.166 20.1888 16.2246 19.668 16.2246C18.8086 16.2246 18.0143 16.0814 17.2852 15.7949C16.556 15.502 15.9277 15.0951 15.4004 14.5742C14.873 14.0534 14.4596 13.4316 14.1602 12.709C13.8607 11.9863 13.7109 11.1953 13.7109 10.3359C13.7109 9.47656 13.8607 8.68555 14.1602 7.96289C14.4596 7.24023 14.873 6.61849 15.4004 6.09766C15.9277 5.57682 16.556 5.17318 17.2852 4.88672C18.0143 4.59375 18.8086 4.44727 19.668 4.44727C20.0846 4.44727 20.5111 4.47656 20.9473 4.53516C21.3835 4.59375 21.8066 4.68815 22.2168 4.81836C22.627 4.94206 23.0143 5.10482 23.3789 5.30664C23.7435 5.50846 24.0592 5.75911 24.3262 6.05859C24.5996 6.35156 24.8145 6.69336 24.9707 7.08398C25.1335 7.47461 25.2148 7.92057 25.2148 8.42188ZM36.9824 12.3965C36.9824 12.8913 36.9108 13.3307 36.7676 13.7148C36.6243 14.099 36.429 14.4342 36.1816 14.7207C35.9342 15.0007 35.6413 15.2383 35.3027 15.4336C34.9642 15.6224 34.5996 15.7754 34.209 15.8926C33.8249 16.0098 33.4212 16.0944 32.998 16.1465C32.5749 16.1986 32.1549 16.2246 31.7383 16.2246C31.1784 16.2246 30.6836 16.1888 30.2539 16.1172C29.8242 16.0456 29.4141 15.9316 29.0234 15.7754C28.6328 15.6126 28.2422 15.4043 27.8516 15.1504C27.4674 14.8965 27.0378 14.5872 26.5625 14.2227L28.4863 12.6504C28.6621 12.9824 28.8932 13.2852 29.1797 13.5586C29.4727 13.8255 29.7754 14.0566 30.0879 14.252C30.4004 14.4473 30.7031 14.597 30.9961 14.7012C31.2891 14.8053 31.5267 14.8574 31.709 14.8574C31.8587 14.8574 32.028 14.8542 32.2168 14.8477C32.4056 14.8346 32.5977 14.8151 32.793 14.7891C32.9883 14.7565 33.1803 14.7109 33.3691 14.6523C33.5579 14.5938 33.724 14.5156 33.8672 14.418C34.0169 14.3138 34.1341 14.1868 34.2188 14.0371C34.3099 13.8809 34.3555 13.6953 34.3555 13.4805C34.3555 13.2591 34.2969 13.0671 34.1797 12.9043C34.069 12.735 33.9225 12.5885 33.7402 12.4648C33.5579 12.3411 33.3496 12.237 33.1152 12.1523C32.8809 12.0677 32.6432 11.9928 32.4023 11.9277C32.168 11.8626 31.9401 11.8073 31.7188 11.7617C31.4974 11.7096 31.3053 11.6608 31.1426 11.6152C30.8431 11.5306 30.5273 11.446 30.1953 11.3613C29.8633 11.2702 29.5345 11.1693 29.209 11.0586C28.8835 10.9414 28.571 10.8047 28.2715 10.6484C27.9785 10.4922 27.7181 10.3066 27.4902 10.0918C27.2689 9.87044 27.0898 9.61328 26.9531 9.32031C26.8229 9.02083 26.7578 8.67253 26.7578 8.27539C26.7578 7.54622 26.901 6.9375 27.1875 6.44922C27.4805 5.95443 27.8646 5.56055 28.3398 5.26758C28.8151 4.9681 29.3555 4.75651 29.9609 4.63281C30.5664 4.50911 31.1816 4.44727 31.8066 4.44727C32.2363 4.44727 32.6888 4.49284 33.1641 4.58398C33.6393 4.66862 34.1016 4.79883 34.5508 4.97461C35 5.14388 35.4199 5.35221 35.8105 5.59961C36.2012 5.84701 36.5267 6.13021 36.7871 6.44922L34.8633 8.03125C34.7201 7.64062 34.5312 7.30534 34.2969 7.02539C34.069 6.74544 33.8184 6.51758 33.5449 6.3418C33.278 6.15951 33.0013 6.02604 32.7148 5.94141C32.4349 5.85677 32.1745 5.81445 31.9336 5.81445C31.6992 5.81445 31.4355 5.82422 31.1426 5.84375C30.8496 5.86328 30.5729 5.91862 30.3125 6.00977C30.0586 6.10091 29.8405 6.24089 29.6582 6.42969C29.4824 6.61198 29.3945 6.86589 29.3945 7.19141C29.3945 7.42578 29.4466 7.6276 29.5508 7.79688C29.6615 7.95964 29.8047 8.10286 29.9805 8.22656C30.1562 8.34375 30.3548 8.44466 30.5762 8.5293C30.804 8.60742 31.0352 8.67904 31.2695 8.74414C31.5039 8.80273 31.7318 8.85482 31.9531 8.90039C32.1745 8.94596 32.373 8.99479 32.5488 9.04688C32.8483 9.13151 33.1641 9.2194 33.4961 9.31055C33.8346 9.39518 34.1667 9.49609 34.4922 9.61328C34.8177 9.72396 35.1302 9.85742 35.4297 10.0137C35.7357 10.1634 36.0026 10.349 36.2305 10.5703C36.4583 10.7917 36.6406 11.0521 36.7773 11.3516C36.9141 11.6445 36.9824 11.9928 36.9824 12.3965ZM51.0645 10.3359C51.0645 11.1562 50.9408 11.9245 50.6934 12.6406C50.446 13.3568 50.0879 13.9818 49.6191 14.5156C49.1504 15.043 48.5775 15.4596 47.9004 15.7656C47.2233 16.0716 46.4551 16.2246 45.5957 16.2246C44.9382 16.2246 44.3327 16.0977 43.7793 15.8438C43.2324 15.5833 42.7637 15.1862 42.373 14.6523V21.2051H39.0723V4.7207H40.3418L41.8066 7.17188C41.9499 6.76172 42.1452 6.39062 42.3926 6.05859C42.6465 5.72005 42.9362 5.43359 43.2617 5.19922C43.5938 4.95833 43.9551 4.77279 44.3457 4.64258C44.7428 4.51237 45.1595 4.44727 45.5957 4.44727C46.4551 4.44727 47.2233 4.60026 47.9004 4.90625C48.5775 5.21224 49.1504 5.63216 49.6191 6.16602C50.0879 6.69336 50.446 7.3151 50.6934 8.03125C50.9408 8.7474 51.0645 9.51562 51.0645 10.3359ZM47.7148 10.3359C47.7148 10.0495 47.6986 9.74674 47.666 9.42773C47.64 9.10221 47.5911 8.77995 47.5195 8.46094C47.4479 8.14193 47.347 7.83594 47.2168 7.54297C47.0931 7.25 46.9336 6.99284 46.7383 6.77148C46.543 6.54362 46.3053 6.36458 46.0254 6.23438C45.752 6.09766 45.4329 6.0293 45.0684 6.0293C44.6908 6.0293 44.362 6.0944 44.082 6.22461C43.8086 6.35482 43.571 6.53385 43.3691 6.76172C43.1738 6.98307 43.0111 7.24023 42.8809 7.5332C42.7572 7.81966 42.6595 8.1224 42.5879 8.44141C42.5163 8.76042 42.4642 9.08268 42.4316 9.4082C42.4056 9.73372 42.3926 10.043 42.3926 10.3359C42.3926 10.5964 42.4121 10.8861 42.4512 11.2051C42.4902 11.5176 42.5521 11.8333 42.6367 12.1523C42.7214 12.4714 42.832 12.7806 42.9688 13.0801C43.1055 13.3796 43.2715 13.6465 43.4668 13.8809C43.6686 14.1152 43.8997 14.304 44.1602 14.4473C44.4271 14.584 44.7298 14.6523 45.0684 14.6523C45.4395 14.6523 45.7617 14.5872 46.0352 14.457C46.3086 14.3203 46.543 14.1413 46.7383 13.9199C46.9336 13.6921 47.0931 13.4316 47.2168 13.1387C47.347 12.8457 47.4479 12.5397 47.5195 12.2207C47.5911 11.9017 47.64 11.5794 47.666 11.2539C47.6986 10.9284 47.7148 10.6224 47.7148 10.3359ZM64.5508 16H61.25V14.6523C60.8594 15.1862 60.3874 15.5833 59.834 15.8438C59.2871 16.0977 58.6849 16.2246 58.0273 16.2246C57.168 16.2246 56.3997 16.0716 55.7227 15.7656C55.0456 15.4596 54.4727 15.043 54.0039 14.5156C53.5352 13.9818 53.1771 13.3568 52.9297 12.6406C52.6823 11.9245 52.5586 11.1562 52.5586 10.3359C52.5586 9.51562 52.6823 8.7474 52.9297 8.03125C53.1771 7.3151 53.5352 6.69336 54.0039 6.16602C54.4727 5.63216 55.0456 5.21224 55.7227 4.90625C56.3997 4.60026 57.168 4.44727 58.0273 4.44727C58.4635 4.44727 58.877 4.51237 59.2676 4.64258C59.6647 4.77279 60.026 4.95833 60.3516 5.19922C60.6836 5.43359 60.9733 5.72005 61.2207 6.05859C61.4746 6.39062 61.6732 6.76172 61.8164 7.17188L63.2812 4.7207H64.5508V16ZM61.2305 10.3359C61.2305 10.043 61.2142 9.73372 61.1816 9.4082C61.1556 9.08268 61.1068 8.76042 61.0352 8.44141C60.9635 8.1224 60.8626 7.81966 60.7324 7.5332C60.6087 7.24023 60.446 6.98307 60.2441 6.76172C60.0488 6.53385 59.8112 6.35482 59.5312 6.22461C59.2513 6.0944 58.9258 6.0293 58.5547 6.0293C58.1836 6.0293 57.8613 6.09766 57.5879 6.23438C57.3145 6.36458 57.0801 6.54362 56.8848 6.77148C56.6895 6.99284 56.5267 7.25 56.3965 7.54297C56.2728 7.83594 56.1751 8.14193 56.1035 8.46094C56.0319 8.77995 55.9798 9.10221 55.9473 9.42773C55.9212 9.74674 55.9082 10.0495 55.9082 10.3359C55.9082 10.6224 55.9212 10.9284 55.9473 11.2539C55.9798 11.5794 56.0319 11.9017 56.1035 12.2207C56.1751 12.5397 56.2728 12.8457 56.3965 13.1387C56.5267 13.4316 56.6895 13.6921 56.8848 13.9199C57.0801 14.1413 57.3145 14.3203 57.5879 14.457C57.8613 14.5872 58.1836 14.6523 58.5547 14.6523C58.8932 14.6523 59.1927 14.584 59.4531 14.4473C59.7201 14.304 59.9512 14.1152 60.1465 13.8809C60.3483 13.6465 60.5176 13.3796 60.6543 13.0801C60.791 12.7806 60.9017 12.4714 60.9863 12.1523C61.071 11.8333 61.1328 11.5176 61.1719 11.2051C61.2109 10.8861 61.2305 10.5964 61.2305 10.3359ZM70.5176 14.5352C70.5176 14.7826 70.472 15.0169 70.3809 15.2383C70.2897 15.4531 70.1628 15.6419 70 15.8047C69.8372 15.9609 69.6484 16.0846 69.4336 16.1758C69.2188 16.2734 68.9876 16.3223 68.7402 16.3223C68.4928 16.3223 68.2617 16.2734 68.0469 16.1758C67.832 16.0846 67.6432 15.9609 67.4805 15.8047C67.3177 15.6419 67.1908 15.4531 67.0996 15.2383C67.0085 15.0169 66.9629 14.7826 66.9629 14.5352C66.9629 14.2943 67.0085 14.0664 67.0996 13.8516C67.1908 13.6302 67.3177 13.4414 67.4805 13.2852C67.6432 13.1224 67.832 12.9954 68.0469 12.9043C68.2617 12.8066 68.4928 12.7578 68.7402 12.7578C68.9876 12.7578 69.2188 12.8066 69.4336 12.9043C69.6484 12.9954 69.8372 13.1224 70 13.2852C70.1628 13.4414 70.2897 13.6302 70.3809 13.8516C70.472 14.0664 70.5176 14.2943 70.5176 14.5352ZM83.3301 7.51367L81.9043 8.08008C81.6764 7.36393 81.2956 6.8138 80.7617 6.42969C80.2279 6.04557 79.5866 5.85352 78.8379 5.85352C78.4342 5.85352 78.0729 5.91862 77.7539 6.04883C77.4414 6.17253 77.1647 6.34505 76.9238 6.56641C76.6895 6.78776 76.4876 7.04492 76.3184 7.33789C76.1556 7.63086 76.0221 7.94336 75.918 8.27539C75.8138 8.60742 75.7389 8.95247 75.6934 9.31055C75.6478 9.66211 75.625 10.0039 75.625 10.3359C75.625 10.694 75.6445 11.0553 75.6836 11.4199C75.7227 11.7845 75.7878 12.1361 75.8789 12.4746C75.9766 12.8066 76.1035 13.1191 76.2598 13.4121C76.416 13.6986 76.6113 13.9492 76.8457 14.1641C77.0866 14.3789 77.3698 14.5482 77.6953 14.6719C78.0273 14.7956 78.4082 14.8574 78.8379 14.8574C79.1829 14.8574 79.5117 14.8053 79.8242 14.7012C80.1367 14.597 80.4232 14.4505 80.6836 14.2617C80.944 14.0729 81.1751 13.8483 81.377 13.5879C81.5788 13.3275 81.7383 13.0378 81.8555 12.7188L83.291 13.2461C83.0762 13.7604 82.7897 14.2064 82.4316 14.584C82.0801 14.9551 81.6797 15.2643 81.2305 15.5117C80.7812 15.7526 80.2995 15.9316 79.7852 16.0488C79.2708 16.166 78.75 16.2246 78.2227 16.2246C77.3698 16.2246 76.5788 16.0814 75.8496 15.7949C75.1204 15.502 74.4889 15.0951 73.9551 14.5742C73.4277 14.0469 73.0143 13.4251 72.7148 12.709C72.4154 11.9863 72.2656 11.1953 72.2656 10.3359C72.2656 9.47005 72.4121 8.67578 72.7051 7.95312C73.0046 7.23047 73.418 6.60872 73.9453 6.08789C74.4727 5.56706 75.1009 5.16341 75.8301 4.87695C76.5592 4.59049 77.3568 4.44727 78.2227 4.44727C78.7695 4.44727 79.3034 4.50911 79.8242 4.63281C80.3451 4.75 80.8268 4.93555 81.2695 5.18945C81.7188 5.43685 82.1191 5.7526 82.4707 6.13672C82.8288 6.52083 83.1152 6.97982 83.3301 7.51367ZM96.8164 9.53516C96.8164 10.2969 96.722 11.0911 96.5332 11.918C96.3509 12.7448 96.0938 13.5553 95.7617 14.3496C95.4297 15.1439 95.0326 15.8893 94.5703 16.5859C94.1081 17.2891 93.6003 17.8945 93.0469 18.4023L91.8066 17.7285C91.9824 17.403 92.1484 17.0384 92.3047 16.6348C92.4609 16.2311 92.6009 15.8047 92.7246 15.3555C92.8548 14.8997 92.9688 14.431 93.0664 13.9492C93.1706 13.4674 93.2552 12.9922 93.3203 12.5234C93.3919 12.0482 93.444 11.5892 93.4766 11.1465C93.5156 10.6973 93.5352 10.2806 93.5352 9.89648C93.5352 9.64258 93.5254 9.3724 93.5059 9.08594C93.4863 8.79297 93.444 8.50326 93.3789 8.2168C93.3203 7.92383 93.2389 7.64388 93.1348 7.37695C93.0306 7.11003 92.8906 6.87565 92.7148 6.67383C92.5456 6.47201 92.3372 6.30924 92.0898 6.18555C91.849 6.06185 91.5625 6 91.2305 6C90.9049 6 90.6152 6.07487 90.3613 6.22461C90.1074 6.36784 89.8828 6.5599 89.6875 6.80078C89.4922 7.03516 89.3229 7.30534 89.1797 7.61133C89.043 7.91732 88.929 8.23307 88.8379 8.55859C88.7533 8.8776 88.6914 9.19336 88.6523 9.50586C88.6133 9.81836 88.5938 10.0983 88.5938 10.3457V16H85.2832V0.570312H88.584V6.38086C89.0072 5.76237 89.5247 5.28711 90.1367 4.95508C90.7552 4.61654 91.4388 4.44727 92.1875 4.44727C92.9688 4.44727 93.6491 4.57422 94.2285 4.82812C94.8079 5.08203 95.2897 5.43685 95.6738 5.89258C96.0579 6.3418 96.3444 6.87891 96.5332 7.50391C96.722 8.1224 96.8164 8.79948 96.8164 9.53516ZM110.352 16H107.051V14.6523C106.66 15.1862 106.188 15.5833 105.635 15.8438C105.088 16.0977 104.486 16.2246 103.828 16.2246C102.969 16.2246 102.201 16.0716 101.523 15.7656C100.846 15.4596 100.273 15.043 99.8047 14.5156C99.3359 13.9818 98.9779 13.3568 98.7305 12.6406C98.4831 11.9245 98.3594 11.1562 98.3594 10.3359C98.3594 9.51562 98.4831 8.7474 98.7305 8.03125C98.9779 7.3151 99.3359 6.69336 99.8047 6.16602C100.273 5.63216 100.846 5.21224 101.523 4.90625C102.201 4.60026 102.969 4.44727 103.828 4.44727C104.264 4.44727 104.678 4.51237 105.068 4.64258C105.465 4.77279 105.827 4.95833 106.152 5.19922C106.484 5.43359 106.774 5.72005 107.021 6.05859C107.275 6.39062 107.474 6.76172 107.617 7.17188L109.082 4.7207H110.352V16ZM107.031 10.3359C107.031 10.043 107.015 9.73372 106.982 9.4082C106.956 9.08268 106.908 8.76042 106.836 8.44141C106.764 8.1224 106.663 7.81966 106.533 7.5332C106.41 7.24023 106.247 6.98307 106.045 6.76172C105.85 6.53385 105.612 6.35482 105.332 6.22461C105.052 6.0944 104.727 6.0293 104.355 6.0293C103.984 6.0293 103.662 6.09766 103.389 6.23438C103.115 6.36458 102.881 6.54362 102.686 6.77148C102.49 6.99284 102.327 7.25 102.197 7.54297C102.074 7.83594 101.976 8.14193 101.904 8.46094C101.833 8.77995 101.781 9.10221 101.748 9.42773C101.722 9.74674 101.709 10.0495 101.709 10.3359C101.709 10.6224 101.722 10.9284 101.748 11.2539C101.781 11.5794 101.833 11.9017 101.904 12.2207C101.976 12.5397 102.074 12.8457 102.197 13.1387C102.327 13.4316 102.49 13.6921 102.686 13.9199C102.881 14.1413 103.115 14.3203 103.389 14.457C103.662 14.5872 103.984 14.6523 104.355 14.6523C104.694 14.6523 104.993 14.584 105.254 14.4473C105.521 14.304 105.752 14.1152 105.947 13.8809C106.149 13.6465 106.318 13.3796 106.455 13.0801C106.592 12.7806 106.702 12.4714 106.787 12.1523C106.872 11.8333 106.934 11.5176 106.973 11.2051C107.012 10.8861 107.031 10.5964 107.031 10.3359ZM117.363 16H114.053V6.0293H112.002V4.7207H114.053V0.570312H117.363V4.7207H120.781V6.0293H117.363V16Z" fill="white"/>
</svg>
